<svg width="4691" height="1031" viewBox="0 0 4691 1031" fill="none" xmlns="http://www.w3.org/2000/svg">
<path d="M879.258 5.41385V648.518C879.258 792.301 751.16 797.529 711.946 685.117C672.732 572.705 497.579 5.41385 497.579 5.41385H146.403L0.000394252 1029.32L306.361 1029.32L361.638 507.348C361.638 507.348 379.902 562.142 427.761 685.117L492.35 847.2C506.986 877.501 544.942 1029.32 837.746 1029.32C1130.55 1029.32 1163.08 847.201 1163.08 847.201C1179.09 805.512 1177.28 742.132 1177.28 685.117V5.41385H879.258Z" fill="#8B5A9F"/>
<path d="M4338.55 1030.24H4040.32V764.545L3682.45 5.42188H3980.68L4186.73 409.384L4392.77 5.42188H4691L4338.55 764.545V1030.24Z" fill="#8B5A9F"/>
<path d="M1822.6 531.386V5.42188H2120.83V678.19C2120.83 918.358 1973.29 1030.24 1709.74 1030.24C1465.88 1030.24 1312.9 916.867 1312.9 678.19V5.42188H1611.13V531.386C1611.13 661.118 1615.16 764.545 1710.74 764.545C1826.63 764.545 1822.6 655.696 1822.6 531.386Z" fill="#8B5A9F"/>
<path fill-rule="evenodd" clip-rule="evenodd" d="M2261.81 1024.82H2559.97V764.545H2750.15C2988.83 764.545 3096.14 612.576 3096.14 368.717C3096.14 105.167 2990.32 0 2750.15 0H2261.81L2261.81 1024.82ZM2795.2 368.717C2795.2 433.785 2733.08 433.785 2603.35 433.785H2559.97V298.227H2603.35C2606.47 298.227 2609.56 298.225 2612.62 298.223C2731.31 298.15 2795.2 298.223 2795.2 368.717Z" fill="#8B5A9F"/>
<path d="M3541.27 1028.04H3243.24L3243.24 5.42188H3541.27V1028.04Z" fill="#8B5A9F"/>
<path d="M3243.18 732.012V1030.04L3594.92 1030.04C3687.04 1030.04 3841.92 1030.04 3880.3 1030.04L3879.66 764.545H3541.27L3243.18 732.012Z" fill="#8B5A9F"/>
</svg>
